<svg width="1024" height="812" viewBox="0 0 1024 812" fill="none" xmlns="http://www.w3.org/2000/svg">
<rect width="1024" height="812" fill="#F5DFCE"/>
<path d="M179.928 109.62V108.18V104.92V98.9H177.928C176.188 98.9 175.708 99.68 174.948 101.1H174.528L175.248 97.8C176.308 98 177.128 98 178.368 98H183.788C185.088 98 185.908 98 187.068 97.8L186.068 101.14H185.648C185.668 99.64 185.168 98.9 183.808 98.9H181.488V100.58V102.02V105.26V110.28C181.488 110.84 181.668 110.92 182.448 110.98C183.028 111 183.788 110.98 184.108 110.94L183.728 112H177.248V111.58C178.328 111.44 179.928 111.32 179.928 110.2V109.62ZM191.036 112.4C189.016 112.4 187.596 111.16 186.956 109.36C186.696 108.64 186.576 107.84 186.576 107C186.576 104.3 188.036 101.6 190.976 101.6C193.736 101.6 195.336 103.46 195.436 106.76H191.496H188.156V106.9C188.156 108.6 188.676 109.92 189.576 110.66C190.116 111.1 190.796 111.34 191.576 111.34C192.056 111.34 192.496 111.28 192.896 111.16C193.856 110.84 194.596 110.14 195.116 109.22L195.536 109.42C194.856 111.22 193.076 112.44 191.036 112.4ZM188.216 105.92H190.976H193.676C193.456 103.72 192.496 102.5 190.976 102.5C190.076 102.5 189.416 102.98 188.936 103.72C188.556 104.32 188.316 105.1 188.216 105.92ZM200.841 106.9L199.381 104.94L198.741 104.06L198.381 103.56C198.041 103.12 198.001 102.94 197.381 102.94C197.041 102.94 196.721 102.96 196.561 102.98L196.941 102H200.881V102.42C200.021 102.56 199.301 102.62 199.961 103.52L201.901 106.14L203.641 103.58C203.961 103.12 203.721 102.94 203.161 102.94C202.641 102.94 202.261 102.96 202.081 102.98L202.461 102H206.741V102.42C205.901 102.56 205.401 102.58 204.761 103.48L202.381 106.78L202.641 107.14L204.101 109.12L204.761 110L205.081 110.44C205.421 110.88 205.461 111.06 206.061 111.06C206.421 111.06 206.741 111.04 206.901 111.02L206.521 112H202.581V111.58C203.441 111.44 204.161 111.38 203.501 110.48L201.421 107.68L199.541 110.42C199.221 110.88 199.461 111.06 200.021 111.06C200.541 111.06 200.921 111.04 201.101 111.02L200.721 112H196.421V111.58C197.261 111.44 197.761 111.42 198.421 110.52L200.941 107.02L200.841 106.9ZM211.443 112.4C210.363 112.4 209.543 111.86 209.163 110.96C209.003 110.58 208.923 110.12 208.923 109.62V108.1V106.94L208.903 104.34V102.9H207.423L207.723 102.08H208.903L208.883 99.68L210.323 98.88L210.343 102.08C211.223 102.08 211.843 102.02 212.403 101.88C212.983 101.74 213.503 101.52 214.123 101.22L214.323 101.34L213.323 102.9H211.923H210.343L210.363 109.46C210.363 110.78 210.883 111.44 211.923 111.44C212.763 111.44 213.443 111.02 214.023 110.2L214.443 110.4C213.843 111.76 212.683 112.4 211.443 112.4ZM219.68 110.52L220.82 108.08L221.24 108.14C221.1 109.28 221.58 110.4 222.66 111C223.26 111.32 224 111.5 224.86 111.5C226.54 111.5 228.2 110.52 228.2 108.76C228.2 108.2 228.04 107.74 227.72 107.34C227.48 107.04 227.16 106.78 226.74 106.52C226.24 106.2 225.6 105.88 224.84 105.54C222.72 104.56 220.32 103.42 220.32 101.22C220.32 100.3 220.62 99.56 221.14 99C221.98 98.08 223.36 97.62 224.86 97.62C226.36 97.62 227.98 98.02 229.22 99.06L228.26 101.34L227.84 101.3C227.76 100.36 227.42 99.42 226.62 98.92C226.12 98.6 225.5 98.46 224.72 98.46C223.22 98.46 221.78 99.4 221.78 100.76C221.78 101.3 221.94 101.74 222.26 102.12C222.54 102.46 222.96 102.76 223.46 103.06C224.08 103.42 224.86 103.78 225.76 104.2C227.88 105.2 229.68 106.24 229.68 108.34C229.68 109.2 229.44 109.9 229.04 110.48C228.14 111.8 226.38 112.4 224.62 112.4C222.68 112.4 220.68 111.78 219.68 110.52ZM232.972 109.48V108.18V105.26L232.952 104C232.952 103.48 232.872 103.4 232.572 103.4C232.312 103.4 231.432 103.68 231.172 103.76L231.452 102.9C231.992 102.68 233.132 102.28 234.392 101.7L234.492 101.74C234.432 102.28 234.412 103.48 234.412 103.74V110.36C234.412 110.92 234.552 111.06 235.112 111.06C235.632 111.06 236.012 111.04 236.192 111.02L235.812 112H231.192V111.58C232.052 111.44 232.972 111.32 232.972 110.2V109.48ZM233.692 100.12C233.012 100.12 232.552 99.64 232.552 98.96C232.552 98.28 233.012 97.8 233.692 97.8C234.392 97.8 234.872 98.28 234.872 98.96C234.872 99.64 234.392 100.12 233.692 100.12ZM237.308 111.68L238.688 109.6L240.348 107.1L241.128 105.94L242.868 103.34L243.208 102.82L241.348 102.8C239.568 102.8 238.828 103.52 237.668 104.84H237.368L238.148 101.92C239.188 101.96 239.288 102 240.468 102H245.108V102.32L243.568 104.62L242.008 106.96L241.228 108.12L239.508 110.72L239.208 111.18L241.528 111.2C243.108 111.2 244.448 110.42 245.268 108.98H245.568L244.968 112.08C243.208 112 242.328 112 242.328 112H237.308V111.68ZM251.407 112.4C249.387 112.4 247.967 111.16 247.327 109.36C247.067 108.64 246.947 107.84 246.947 107C246.947 104.3 248.407 101.6 251.347 101.6C254.107 101.6 255.707 103.46 255.807 106.76H251.867H248.527V106.9C248.527 108.6 249.047 109.92 249.947 110.66C250.487 111.1 251.167 111.34 251.947 111.34C252.427 111.34 252.867 111.28 253.267 111.16C254.227 110.84 254.967 110.14 255.487 109.22L255.907 109.42C255.227 111.22 253.447 112.44 251.407 112.4ZM248.587 105.92H251.347H254.047C253.827 103.72 252.867 102.5 251.347 102.5C250.447 102.5 249.787 102.98 249.307 103.72C248.927 104.32 248.687 105.1 248.587 105.92Z" fill="black"/>
<circle cx="277" cy="104" r="11" fill="black" stroke="black" stroke-width="2"/>
<rect width="172" height="2" transform="translate(289 103)" fill="black"/>
<path d="M469.96 110.76C470.04 107.3 471.8 106.5 474.24 104.7C474.76 104.3 475.22 103.96 475.6 103.64C476.92 102.54 477.48 101.72 477.48 100.6C477.48 99.34 476.36 98.44 474.88 98.44C473.84 98.44 473.04 98.76 472.48 99.36C472.3 99.54 472.08 99.86 471.94 100.16L471.7 100.8C471.64 101.02 471.6 101.26 471.56 101.52L471.14 101.56L470.1 99.08C471.12 98.24 472.9 97.58 474.58 97.58C476.42 97.58 477.78 98.12 478.5 99.08C478.86 99.56 479.06 100.18 479.06 100.86C479.06 103 477.14 104.4 475.12 105.7L474.2 106.3C473.8 106.58 473.4 106.86 473.02 107.16C471.88 108.06 470.94 109.14 470.86 110.76H475.7C477.28 110.76 478 109.84 478.94 108.24H479.36L478.54 112.08L475.68 112H469.96V110.76ZM485.584 112V111.58C486.524 111.44 487.724 111.32 487.724 110.2V107.9H481.084V107.22L488.004 98H489.284V100.82V102.26V105.52V107H492.624V107.9H489.284V110.26C489.284 110.82 489.444 110.94 490.124 110.96C490.704 110.98 491.224 110.96 491.524 110.92L491.144 112H485.584ZM482.364 107H482.604H484.184H485.844H487.724V99.88L486.104 102.04L485.324 103.08L483.524 105.46L482.364 107ZM499.517 112.4C497.557 112.4 495.997 111.08 495.157 108.92C494.717 107.82 494.477 106.5 494.477 105.02C494.477 100.66 496.557 97.6 499.537 97.6C501.477 97.6 503.037 98.9 503.897 101.02C504.357 102.14 504.617 103.52 504.617 105.04C504.617 109.36 502.517 112.4 499.517 112.4ZM499.517 111.44C500.377 111.44 501.077 111.08 501.597 110.42C502.077 109.82 502.437 108.96 502.637 107.86C502.797 107.04 502.877 106.08 502.877 105C502.877 100.86 501.697 98.56 499.537 98.56C498.557 98.56 497.797 99.04 497.237 99.94C496.897 100.5 496.657 101.2 496.477 102.04C496.297 102.88 496.217 103.88 496.217 105C496.217 109.14 497.377 111.44 499.517 111.44Z" fill="black"/>
<path d="M544.97 110.74L543.71 107.5L543.15 106.06L540.67 99.68C540.47 99.16 540.37 99.02 539.77 99C539.19 99 538.75 99.02 538.51 99.04L538.89 98H544.01V98.42C543.05 98.56 541.93 98.66 542.33 99.72L542.59 100.4C542.91 101.22 543.11 101.76 543.13 101.86L544.37 105.12L546.01 109.48L546.85 106.9L547.89 103.66L548.35 102.22L549.01 100.14L548.85 99.68C548.67 99.16 548.55 99.02 547.95 99C547.37 99 546.95 99.02 546.69 99.04L547.07 98H552.21V98.42C551.25 98.56 550.13 98.66 550.49 99.74L550.71 100.42L551.23 101.86L552.39 105.12L553.89 109.44L554.75 106.9L555.87 103.68L556.37 102.24L557.25 99.68C557.43 99.16 557.25 99.02 556.65 99C556.07 99 555.63 99.02 555.39 99.04L555.77 98H560.81V98.42C559.85 98.56 558.59 98.66 558.21 99.72L553.73 112.4H553.43L552.63 110.2L552.11 108.74L550.93 105.44L549.53 101.56L545.91 112.4H545.61L544.97 110.74ZM564.844 112.4C562.824 112.4 561.404 111.16 560.764 109.36C560.504 108.64 560.384 107.84 560.384 107C560.384 104.3 561.844 101.6 564.784 101.6C567.544 101.6 569.144 103.46 569.244 106.76H565.304H561.964V106.9C561.964 108.6 562.484 109.92 563.384 110.66C563.924 111.1 564.604 111.34 565.384 111.34C565.864 111.34 566.304 111.28 566.704 111.16C567.664 110.84 568.404 110.14 568.924 109.22L569.344 109.42C568.664 111.22 566.884 112.44 564.844 112.4ZM562.024 105.92H564.784H567.484C567.264 103.72 566.304 102.5 564.784 102.5C563.884 102.5 563.224 102.98 562.744 103.72C562.364 104.32 562.124 105.1 562.024 105.92ZM572.229 109.48V108.18V105.26L572.209 104C572.209 103.48 572.129 103.4 571.829 103.4C571.569 103.4 570.689 103.68 570.429 103.76L570.709 102.9C571.249 102.68 572.389 102.28 573.649 101.7L573.749 101.74C573.689 102.28 573.669 103.48 573.669 103.74V110.36C573.669 110.92 573.809 111.06 574.369 111.06C574.889 111.06 575.269 111.04 575.449 111.02L575.069 112H570.449V111.58C571.309 111.44 572.229 111.32 572.229 110.2V109.48ZM572.949 100.12C572.269 100.12 571.809 99.64 571.809 98.96C571.809 98.28 572.269 97.8 572.949 97.8C573.649 97.8 574.129 98.28 574.129 98.96C574.129 99.64 573.649 100.12 572.949 100.12ZM580.366 116.3C578.726 116.3 576.526 115.84 576.526 114.2C576.526 113.5 576.806 112.92 577.286 112.46C577.606 112.14 578.066 111.86 578.586 111.64C578.006 111.28 577.706 110.74 577.706 110.18C577.706 109.38 578.346 108.76 579.106 108.4C578.146 107.76 577.526 106.66 577.526 105.32C577.526 103.12 579.146 101.62 581.386 101.62C581.606 101.62 581.846 101.64 582.046 101.66C584.246 101.86 585.546 101.6 586.326 100.98L586.566 101.16L585.666 102.72L584.226 102.7C584.866 103.34 585.246 104.26 585.246 105.32C585.246 107.5 583.646 109.04 581.386 109.04C580.806 109.04 580.246 108.92 579.786 108.74C579.246 108.98 578.886 109.32 578.886 109.86C578.886 110.5 579.606 110.86 580.986 110.86H582.946C585.066 110.86 586.286 111.6 586.286 112.94C586.286 115.08 583.206 116.3 580.366 116.3ZM581.386 108.26C582.166 108.26 582.786 107.94 583.206 107.36C583.546 106.86 583.746 106.16 583.746 105.32C583.746 103.48 582.846 102.38 581.386 102.38C580.806 102.38 580.306 102.56 579.906 102.9C579.346 103.4 579.026 104.24 579.026 105.32C579.026 107.14 579.966 108.26 581.386 108.26ZM578.106 113.96C578.126 114.46 578.426 114.88 578.986 115.14C579.446 115.34 580.066 115.46 580.806 115.46C582.746 115.46 584.746 114.68 584.746 113.36C584.746 112.28 583.506 112.14 582.546 112.14H580.706C580.146 112.14 579.686 112.08 579.286 111.96C578.546 112.44 578.086 113.08 578.106 113.96ZM596.102 109.74V108.48V105.66V105.22C596.102 103.54 595.662 102.9 594.482 102.9C593.262 102.9 591.702 104.08 590.942 105.86V110.36C590.942 110.92 591.082 111.06 591.642 111.06C592.162 111.06 592.542 111.04 592.722 111.02L592.342 112H587.722V111.58C588.582 111.44 589.502 111.32 589.502 110.2V109.74V108.48V105.66L589.482 98C589.482 97.48 589.402 97.4 589.102 97.4C588.842 97.4 587.962 97.68 587.702 97.76L587.982 96.9C588.522 96.68 589.662 96.28 590.922 95.7L591.022 95.74C590.962 96.28 590.942 97.48 590.942 97.74V104.7C591.682 102.76 593.422 101.6 594.942 101.6C595.702 101.6 596.402 101.9 596.882 102.52C597.282 103.06 597.542 103.84 597.542 104.88V110.36C597.542 110.92 597.682 111.06 598.242 111.06C598.762 111.06 599.142 111.04 599.322 111.02L598.942 112H594.322V111.58C595.182 111.44 596.102 111.32 596.102 110.2V109.74ZM604.178 112.4C603.098 112.4 602.278 111.86 601.898 110.96C601.738 110.58 601.658 110.12 601.658 109.62V108.1V106.94L601.638 104.34V102.9H600.158L600.458 102.08H601.638L601.618 99.68L603.058 98.88L603.078 102.08C603.958 102.08 604.578 102.02 605.138 101.88C605.718 101.74 606.238 101.52 606.858 101.22L607.058 101.34L606.058 102.9H604.658H603.078L603.098 109.46C603.098 110.78 603.618 111.44 604.658 111.44C605.498 111.44 606.178 111.02 606.758 110.2L607.178 110.4C606.578 111.76 605.418 112.4 604.178 112.4Z" fill="black"/>
<circle cx="632" cy="104" r="11" fill="black" stroke="black" stroke-width="2"/>
<rect width="172" height="2" transform="translate(648 103)" fill="black"/>
<path d="M827.32 109.74V106.52V105.08V100.06C827.32 99.56 827.1 99.4 826.76 99.4C826.34 99.4 825.4 99.76 825.16 99.82L825.44 98.96C826.06 98.72 827.38 98.26 828.84 97.6L828.98 97.64C828.9 98.22 828.88 99.52 828.88 99.8V102.2V103.64V106.9V110.26C828.88 110.82 829.04 110.94 829.72 110.96C830.3 110.98 830.82 110.96 831.12 110.92L830.74 112H825.18V111.58C826.12 111.44 827.32 111.32 827.32 110.2V109.74ZM838.521 112.4C836.561 112.4 835.001 111.08 834.161 108.92C833.721 107.82 833.481 106.5 833.481 105.02C833.481 100.66 835.561 97.6 838.541 97.6C840.481 97.6 842.041 98.9 842.901 101.02C843.361 102.14 843.621 103.52 843.621 105.04C843.621 109.36 841.521 112.4 838.521 112.4ZM838.521 111.44C839.381 111.44 840.081 111.08 840.601 110.42C841.081 109.82 841.441 108.96 841.641 107.86C841.801 107.04 841.881 106.08 841.881 105C841.881 100.86 840.701 98.56 838.541 98.56C837.561 98.56 836.801 99.04 836.241 99.94C835.901 100.5 835.661 101.2 835.481 102.04C835.301 102.88 835.221 103.88 835.221 105C835.221 109.14 836.381 111.44 838.521 111.44ZM851.06 112.4C849.1 112.4 847.54 111.08 846.7 108.92C846.26 107.82 846.02 106.5 846.02 105.02C846.02 100.66 848.1 97.6 851.08 97.6C853.02 97.6 854.58 98.9 855.44 101.02C855.9 102.14 856.16 103.52 856.16 105.04C856.16 109.36 854.06 112.4 851.06 112.4ZM851.06 111.44C851.92 111.44 852.62 111.08 853.14 110.42C853.62 109.82 853.98 108.96 854.18 107.86C854.34 107.04 854.42 106.08 854.42 105C854.42 100.86 853.24 98.56 851.08 98.56C850.1 98.56 849.34 99.04 848.78 99.94C848.44 100.5 848.2 101.2 848.02 102.04C847.84 102.88 847.76 103.88 847.76 105C847.76 109.14 848.92 111.44 851.06 111.44Z" fill="black"/>
<rect width="976" height="250" transform="translate(24 136)" fill="black"/>
<path d="M383.72 289.648V281.872V264.268V231.76H372.92C363.524 231.76 360.932 235.972 356.828 243.64H354.56L358.448 225.82C364.172 226.9 368.6 226.9 375.296 226.9H404.564C411.584 226.9 416.012 226.9 422.276 225.82L416.876 243.856H414.608C414.716 235.756 412.016 231.76 404.672 231.76H392.144V240.832V248.608V266.104V293.212C392.144 296.236 393.116 296.668 397.328 296.992C400.46 297.1 404.564 296.992 406.292 296.776L404.24 302.5H369.248V300.232C375.08 299.476 383.72 298.828 383.72 292.78V289.648ZM432.042 288.46V281.548V265.996L431.934 259.3C431.934 256.492 431.502 256.06 429.882 256.06C428.478 256.06 423.726 257.572 422.322 258.004L423.834 253.36C426.75 252.172 432.906 250.012 439.71 246.88L440.25 247.096C439.926 250.012 439.818 256.492 439.818 257.896V260.596C443.274 252.388 449.862 247.636 456.882 247.636C459.69 247.636 462.498 248.392 465.198 250.012C463.578 254.332 462.39 258.652 460.77 262.972L458.502 262.756C457.962 258.004 455.802 254.656 452.67 254.656C447.918 254.656 442.842 259.948 439.818 266.968V293.644C439.818 296.668 440.79 297.208 444.894 297.424C447.486 297.532 451.266 297.424 452.67 297.208L450.618 302.5H422.43V300.232C427.074 299.476 432.042 298.828 432.042 292.78V288.46ZM478.202 288.892V281.872V266.104L478.094 259.3C478.094 256.492 477.662 256.06 476.042 256.06C474.638 256.06 469.886 257.572 468.482 258.004L469.994 253.36C472.91 252.172 479.066 250.012 485.87 246.88L486.41 247.096C486.086 250.012 485.978 256.492 485.978 257.896V293.644C485.978 296.668 486.734 297.424 489.758 297.424C492.566 297.424 494.618 297.316 495.59 297.208L493.538 302.5H468.59V300.232C473.234 299.476 478.202 298.828 478.202 292.78V288.892ZM482.09 238.348C478.418 238.348 475.934 235.756 475.934 232.084C475.934 228.412 478.418 225.82 482.09 225.82C485.87 225.82 488.462 228.412 488.462 232.084C488.462 235.756 485.87 238.348 482.09 238.348ZM511.555 291.376V283.6V265.996V253.252L502.051 253.36L503.671 248.932H511.555V237.376C511.555 232.732 512.203 228.844 514.039 225.496C517.603 218.8 524.947 215.128 535.423 215.128C542.011 215.128 549.031 216.316 556.699 219.016C560.695 216.424 566.095 215.128 573.223 215.128C581.539 215.128 588.451 216.856 595.903 220.744L590.395 235.324L588.127 235.108C587.695 225.064 581.971 219.448 572.035 219.448C562.855 219.448 556.267 224.956 556.267 233.812V248.932H573.763C580.243 248.932 585.751 247.528 592.771 244.288L593.851 244.936C593.419 248.608 593.203 252.604 593.203 257.896V293.644C593.203 296.668 593.959 297.424 596.983 297.424C599.791 297.424 601.843 297.316 602.815 297.208L600.763 302.5H575.815V300.232C580.459 299.476 585.427 298.828 585.427 292.78V291.376V283.6V265.996V253.36H556.267V293.644C556.267 296.668 557.239 297.208 561.343 297.424C563.935 297.532 567.715 297.424 569.119 297.208L567.067 302.5H538.879V300.232C543.523 299.476 548.491 298.828 548.491 292.78V291.376V283.6V265.996V253.36H519.331V293.644C519.331 296.668 520.303 297.208 524.407 297.424C526.999 297.532 530.779 297.424 532.183 297.208L530.131 302.5H501.943V300.232C506.587 299.476 511.555 298.828 511.555 292.78V291.376ZM519.331 248.932H548.491V237.376C548.491 234.244 548.815 231.436 549.571 228.844C547.843 222.904 542.443 219.448 534.343 219.448C525.703 219.448 519.331 224.632 519.331 233.812V248.932ZM651.973 304.336C652.297 300.124 652.729 295.372 652.189 291.052C648.733 298.828 642.361 304.228 633.721 304.66C626.053 305.092 619.573 301.528 615.577 294.724C612.877 290.188 611.149 284.356 611.149 277.228C611.149 259.732 622.381 246.34 636.313 246.34C641.821 246.34 647.113 248.176 651.541 251.956V226.9C651.541 224.092 651.109 223.66 649.489 223.66C648.085 223.66 643.333 225.172 641.929 225.604L643.441 220.96C646.357 219.772 652.513 217.612 659.317 214.48L659.857 214.696C659.533 217.612 659.425 224.092 659.425 225.496L659.533 257.788V262.324V278.2V292.132C659.533 294.94 659.965 295.372 661.585 295.372C662.989 295.372 667.741 293.86 669.145 293.428L667.633 298.072C664.609 299.26 659.425 301.42 652.513 304.552L651.973 304.336ZM620.221 283.492C620.869 286.408 621.841 289 623.245 291.16C626.053 295.588 630.265 298.072 635.557 298.072C641.497 298.072 647.869 292.888 651.649 285.868V258.22C647.761 254.008 643.441 251.524 637.177 251.524C633.613 251.524 630.589 252.604 628.105 254.44C622.381 258.76 619.357 267.184 619.357 275.392C619.357 278.308 619.681 281.008 620.221 283.492Z" fill="#F5DFCE"/>
<path d="M184.428 455.62V454.18V450.92V444.9H182.428C180.688 444.9 180.208 445.68 179.448 447.1H179.028L179.748 443.8C180.808 444 181.628 444 182.868 444H188.288C189.588 444 190.408 444 191.568 443.8L190.568 447.14H190.148C190.168 445.64 189.668 444.9 188.308 444.9H185.988V446.58V448.02V451.26V456.28C185.988 456.84 186.168 456.92 186.948 456.98C187.528 457 188.288 456.98 188.608 456.94L188.228 458H181.748V457.58C182.828 457.44 184.428 457.32 184.428 456.2V455.62ZM195.536 458.4C193.516 458.4 192.096 457.16 191.456 455.36C191.196 454.64 191.076 453.84 191.076 453C191.076 450.3 192.536 447.6 195.476 447.6C198.236 447.6 199.836 449.46 199.936 452.76H195.996H192.656V452.9C192.656 454.6 193.176 455.92 194.076 456.66C194.616 457.1 195.296 457.34 196.076 457.34C196.556 457.34 196.996 457.28 197.396 457.16C198.356 456.84 199.096 456.14 199.616 455.22L200.036 455.42C199.356 457.22 197.576 458.44 195.536 458.4ZM192.716 451.92H195.476H198.176C197.956 449.72 196.996 448.5 195.476 448.5C194.576 448.5 193.916 448.98 193.436 449.72C193.056 450.32 192.816 451.1 192.716 451.92ZM205.341 452.9L203.881 450.94L203.241 450.06L202.881 449.56C202.541 449.12 202.501 448.94 201.881 448.94C201.541 448.94 201.221 448.96 201.061 448.98L201.441 448H205.381V448.42C204.521 448.56 203.801 448.62 204.461 449.52L206.401 452.14L208.141 449.58C208.461 449.12 208.221 448.94 207.661 448.94C207.141 448.94 206.761 448.96 206.581 448.98L206.961 448H211.241V448.42C210.401 448.56 209.901 448.58 209.261 449.48L206.881 452.78L207.141 453.14L208.601 455.12L209.261 456L209.581 456.44C209.921 456.88 209.961 457.06 210.561 457.06C210.921 457.06 211.241 457.04 211.401 457.02L211.021 458H207.081V457.58C207.941 457.44 208.661 457.38 208.001 456.48L205.921 453.68L204.041 456.42C203.721 456.88 203.961 457.06 204.521 457.06C205.041 457.06 205.421 457.04 205.601 457.02L205.221 458H200.921V457.58C201.761 457.44 202.261 457.42 202.921 456.52L205.441 453.02L205.341 452.9ZM215.943 458.4C214.863 458.4 214.043 457.86 213.663 456.96C213.503 456.58 213.423 456.12 213.423 455.62V454.1V452.94L213.403 450.34V448.9H211.923L212.223 448.08H213.403L213.383 445.68L214.823 444.88L214.843 448.08C215.723 448.08 216.343 448.02 216.903 447.88C217.483 447.74 218.003 447.52 218.623 447.22L218.823 447.34L217.823 448.9H216.423H214.843L214.863 455.46C214.863 456.78 215.383 457.44 216.423 457.44C217.263 457.44 217.943 457.02 218.523 456.2L218.943 456.4C218.343 457.76 217.183 458.4 215.943 458.4ZM224.18 456.52L225.32 454.08L225.74 454.14C225.6 455.28 226.08 456.4 227.16 457C227.76 457.32 228.5 457.5 229.36 457.5C231.04 457.5 232.7 456.52 232.7 454.76C232.7 454.2 232.54 453.74 232.22 453.34C231.98 453.04 231.66 452.78 231.24 452.52C230.74 452.2 230.1 451.88 229.34 451.54C227.22 450.56 224.82 449.42 224.82 447.22C224.82 446.3 225.12 445.56 225.64 445C226.48 444.08 227.86 443.62 229.36 443.62C230.86 443.62 232.48 444.02 233.72 445.06L232.76 447.34L232.34 447.3C232.26 446.36 231.92 445.42 231.12 444.92C230.62 444.6 230 444.46 229.22 444.46C227.72 444.46 226.28 445.4 226.28 446.76C226.28 447.3 226.44 447.74 226.76 448.12C227.04 448.46 227.46 448.76 227.96 449.06C228.58 449.42 229.36 449.78 230.26 450.2C232.38 451.2 234.18 452.24 234.18 454.34C234.18 455.2 233.94 455.9 233.54 456.48C232.64 457.8 230.88 458.4 229.12 458.4C227.18 458.4 225.18 457.78 224.18 456.52ZM237.472 455.48V454.18V451.26L237.452 450C237.452 449.48 237.372 449.4 237.072 449.4C236.812 449.4 235.932 449.68 235.672 449.76L235.952 448.9C236.492 448.68 237.632 448.28 238.892 447.7L238.992 447.74C238.932 448.28 238.912 449.48 238.912 449.74V456.36C238.912 456.92 239.052 457.06 239.612 457.06C240.132 457.06 240.512 457.04 240.692 457.02L240.312 458H235.692V457.58C236.552 457.44 237.472 457.32 237.472 456.2V455.48ZM238.192 446.12C237.512 446.12 237.052 445.64 237.052 444.96C237.052 444.28 237.512 443.8 238.192 443.8C238.892 443.8 239.372 444.28 239.372 444.96C239.372 445.64 238.892 446.12 238.192 446.12ZM241.808 457.68L243.188 455.6L244.848 453.1L245.628 451.94L247.368 449.34L247.708 448.82L245.848 448.8C244.068 448.8 243.328 449.52 242.168 450.84H241.868L242.648 447.92C243.688 447.96 243.788 448 244.968 448H249.608V448.32L248.068 450.62L246.508 452.96L245.728 454.12L244.008 456.72L243.708 457.18L246.028 457.2C247.608 457.2 248.948 456.42 249.768 454.98H250.068L249.468 458.08C247.708 458 246.828 458 246.828 458H241.808V457.68ZM255.907 458.4C253.887 458.4 252.467 457.16 251.827 455.36C251.567 454.64 251.447 453.84 251.447 453C251.447 450.3 252.907 447.6 255.847 447.6C258.607 447.6 260.207 449.46 260.307 452.76H256.367H253.027V452.9C253.027 454.6 253.547 455.92 254.447 456.66C254.987 457.1 255.667 457.34 256.447 457.34C256.927 457.34 257.367 457.28 257.767 457.16C258.727 456.84 259.467 456.14 259.987 455.22L260.407 455.42C259.727 457.22 257.947 458.44 255.907 458.4ZM253.087 451.92H255.847H258.547C258.327 449.72 257.367 448.5 255.847 448.5C254.947 448.5 254.287 448.98 253.807 449.72C253.427 450.32 253.187 451.1 253.087 451.92Z" fill="black"/>
<circle cx="281.5" cy="450" r="11" fill="black" stroke="black" stroke-width="2"/>
<rect width="172" height="2" transform="translate(293.5 449)" fill="black"/>
<path d="M479.68 458.38C476.6 458.38 474.66 455.56 474.66 451.06C474.66 446.68 476.94 443.6 480.2 443.6C481.72 443.6 483.34 444.16 484.3 445L483.34 447.68L482.92 447.64C482.78 446.7 482.48 445.94 482.04 445.4C481.52 444.78 480.82 444.46 479.94 444.46C477.76 444.46 476.54 446.26 476.42 450.72C477.32 449.82 478.74 449.24 480.24 449.24C481.86 449.24 483.18 450 483.88 451.24C484.26 451.9 484.48 452.68 484.48 453.56C484.48 456.4 482.5 458.38 479.68 458.38ZM476.66 454.08C477.14 456.24 478.26 457.52 479.84 457.52C481.66 457.52 482.8 456.14 482.8 453.92C482.8 452.88 482.52 452.02 482.02 451.4C481.64 450.94 481.12 450.6 480.5 450.46C480.24 450.4 479.96 450.36 479.66 450.36C478.48 450.36 477.28 450.86 476.4 451.72C476.42 452.62 476.5 453.4 476.66 454.08ZM490.553 458V457.58C491.493 457.44 492.693 457.32 492.693 456.2V453.9H486.053V453.22L492.973 444H494.253V446.82V448.26V451.52V453H497.593V453.9H494.253V456.26C494.253 456.82 494.413 456.94 495.093 456.96C495.673 456.98 496.193 456.96 496.493 456.92L496.113 458H490.553ZM487.333 453H487.573H489.153H490.813H492.693V445.88L491.073 448.04L490.293 449.08L488.493 451.46L487.333 453Z" fill="black"/>
<path d="M537.867 458.4C535.587 458.4 533.607 457.04 532.487 454.94C531.887 453.8 531.527 452.44 531.527 450.98C531.527 445.68 535.147 443.58 538.547 443.58C540.327 443.58 542.047 444.16 543.167 445.14L542.247 447.76L541.827 447.72C541.627 445.54 540.087 444.48 538.367 444.48C537.427 444.48 536.427 444.8 535.567 445.44C534.507 446.2 533.647 447.46 533.347 449.18C533.267 449.6 533.227 450.06 533.227 450.56C533.227 452.88 533.887 454.7 535.027 455.86C535.567 456.4 536.207 456.78 536.947 457.02C537.427 457.16 537.967 457.24 538.527 457.24C540.267 457.24 541.987 456.32 542.947 454.3L543.367 454.46C542.467 456.82 540.427 458.4 537.867 458.4ZM547.882 458.4C546.862 458.4 546.002 457.98 545.462 457.28C545.102 456.82 544.902 456.22 544.902 455.54C544.902 453.54 546.382 452.96 547.922 452.56C549.622 452.12 551.402 451.86 551.402 450.16C551.402 449.1 550.402 448.48 549.302 448.48C547.662 448.48 546.702 449.52 546.702 451.2L546.282 451.24C545.982 450.5 545.762 449.76 545.462 449.02C546.262 448.18 547.802 447.66 549.442 447.66C551.022 447.66 552.042 448.1 552.542 449C552.782 449.44 552.902 449.96 552.902 450.62V452.48V456.64C552.902 457.04 553.042 457.26 553.462 457.26C553.762 457.26 554.302 457.08 554.762 456.66L554.862 456.94C554.342 457.84 553.522 458.4 552.622 458.4C551.622 458.4 551.442 457.66 551.442 456.66V456.04C550.622 457.68 549.202 458.4 547.882 458.4ZM548.182 457.26C549.802 457.26 550.842 456.3 551.462 454.9L551.482 451.8C551.162 452.54 549.802 452.86 548.582 453.22C547.442 453.58 546.442 454.1 546.442 455.34C546.442 456.64 547.202 457.26 548.182 457.26ZM557.459 455.4V454.12V451.24L557.439 450C557.439 449.48 557.359 449.4 557.059 449.4C556.799 449.4 555.919 449.68 555.659 449.76L555.939 448.9C556.479 448.68 557.619 448.28 558.879 447.7L558.979 447.74C558.919 448.28 558.899 449.48 558.899 449.74V450.24C559.539 448.72 560.759 447.84 562.059 447.84C562.579 447.84 563.099 447.98 563.599 448.28C563.299 449.08 563.079 449.88 562.779 450.68L562.359 450.64C562.259 449.76 561.859 449.14 561.279 449.14C560.399 449.14 559.459 450.12 558.899 451.42V456.36C558.899 456.92 559.079 457.02 559.839 457.06C560.319 457.08 561.019 457.06 561.279 457.02L560.899 458H555.679V457.58C556.539 457.44 557.459 457.32 557.459 456.2V455.4ZM572.887 455.94V454.5V451.26V451.22C572.887 449.54 572.447 448.9 571.267 448.9C570.047 448.9 568.487 450.08 567.727 451.86V456.36C567.727 456.92 567.867 457.06 568.427 457.06C568.947 457.06 569.327 457.04 569.507 457.02L569.127 458H564.507V457.58C565.367 457.44 566.287 457.32 566.287 456.2V455.94V454.5V451.26L566.267 450C566.267 449.48 566.187 449.4 565.887 449.4C565.627 449.4 564.747 449.68 564.487 449.76L564.767 448.9C565.307 448.68 566.447 448.28 567.707 447.7L567.807 447.74C567.747 448.28 567.727 449.48 567.727 449.74V450.7C568.467 448.76 570.207 447.6 571.727 447.6C572.427 447.6 573.067 447.84 573.527 448.36C574.027 448.9 574.327 449.72 574.327 450.88V456.36C574.327 456.92 574.467 457.06 575.027 457.06C575.547 457.06 575.927 457.04 576.107 457.02L575.727 458H571.107V457.58C571.967 457.44 572.887 457.32 572.887 456.2V455.94ZM578.663 455.48V454.18V451.26L578.643 450C578.643 449.48 578.563 449.4 578.263 449.4C578.003 449.4 577.123 449.68 576.863 449.76L577.143 448.9C577.683 448.68 578.823 448.28 580.083 447.7L580.183 447.74C580.123 448.28 580.103 449.48 580.103 449.74V456.36C580.103 456.92 580.243 457.06 580.803 457.06C581.323 457.06 581.703 457.04 581.883 457.02L581.503 458H576.883V457.58C577.743 457.44 578.663 457.32 578.663 456.2V455.48ZM579.383 446.12C578.703 446.12 578.243 445.64 578.243 444.96C578.243 444.28 578.703 443.8 579.383 443.8C580.083 443.8 580.563 444.28 580.563 444.96C580.563 445.64 580.083 446.12 579.383 446.12ZM587.42 456.62L586.04 453.54C586.02 453.44 585.78 452.94 585.44 452.16L584.3 449.6C584.08 449.1 584 448.94 583.4 448.94C583.04 448.94 582.72 448.96 582.56 448.98L582.94 448H587.06V448.42C586.2 448.56 585.42 448.66 585.84 449.68L588.54 456.1L588.96 455.06L589.98 452.44L590.44 451.26L591.1 449.62C591.3 449.1 591.08 448.96 590.44 448.94C589.94 448.94 589.44 448.96 589.22 448.98L589.6 448H593.88V448.42C593.02 448.56 592.52 448.64 592.08 449.68L588.54 458.2H588.12L587.42 456.62ZM599.275 458.4C597.435 458.4 596.035 457.52 595.215 456.12C594.715 455.26 594.435 454.18 594.435 453C594.435 449.82 596.435 447.6 599.275 447.6C601.075 447.6 602.495 448.48 603.315 449.86C603.835 450.74 604.115 451.82 604.115 453C604.115 456.18 602.115 458.4 599.275 458.4ZM599.275 457.52C600.395 457.52 601.275 456.96 601.835 456C602.275 455.24 602.515 454.2 602.515 452.98C602.515 451.56 602.175 450.4 601.595 449.62C601.035 448.88 600.235 448.48 599.275 448.48C598.575 448.48 597.955 448.7 597.475 449.1C597.015 449.46 596.635 450 596.395 450.66C596.155 451.32 596.035 452.1 596.035 452.98C596.035 455.76 597.275 457.52 599.275 457.52ZM607.42 455.4V454.12V451.24L607.4 450C607.4 449.48 607.32 449.4 607.02 449.4C606.76 449.4 605.88 449.68 605.62 449.76L605.9 448.9C606.44 448.68 607.58 448.28 608.84 447.7L608.94 447.74C608.88 448.28 608.86 449.48 608.86 449.74V450.24C609.5 448.72 610.72 447.84 612.02 447.84C612.54 447.84 613.06 447.98 613.56 448.28C613.26 449.08 613.04 449.88 612.74 450.68L612.32 450.64C612.22 449.76 611.82 449.14 611.24 449.14C610.36 449.14 609.42 450.12 608.86 451.42V456.36C608.86 456.92 609.04 457.02 609.8 457.06C610.28 457.08 610.98 457.06 611.24 457.02L610.86 458H605.64V457.58C606.5 457.44 607.42 457.32 607.42 456.2V455.4ZM619.208 458.4C617.188 458.4 615.768 457.16 615.128 455.36C614.868 454.64 614.748 453.84 614.748 453C614.748 450.3 616.208 447.6 619.148 447.6C621.908 447.6 623.508 449.46 623.608 452.76H619.668H616.328V452.9C616.328 454.6 616.848 455.92 617.748 456.66C618.288 457.1 618.968 457.34 619.748 457.34C620.228 457.34 620.668 457.28 621.068 457.16C622.028 456.84 622.768 456.14 623.288 455.22L623.708 455.42C623.028 457.22 621.248 458.44 619.208 458.4ZM616.388 451.92H619.148H621.848C621.628 449.72 620.668 448.5 619.148 448.5C618.248 448.5 617.588 448.98 617.108 449.72C616.728 450.32 616.488 451.1 616.388 451.92Z" fill="black"/>
<circle cx="648.5" cy="450" r="11" fill="black" stroke="black" stroke-width="2"/>
<rect width="172" height="2" transform="translate(664.5 449)" fill="black"/>
<path d="M846.74 458.4C844.78 458.4 843.22 457.08 842.38 454.92C841.94 453.82 841.7 452.5 841.7 451.02C841.7 446.66 843.78 443.6 846.76 443.6C848.7 443.6 850.26 444.9 851.12 447.02C851.58 448.14 851.84 449.52 851.84 451.04C851.84 455.36 849.74 458.4 846.74 458.4ZM846.74 457.44C847.6 457.44 848.3 457.08 848.82 456.42C849.3 455.82 849.66 454.96 849.86 453.86C850.02 453.04 850.1 452.08 850.1 451C850.1 446.86 848.92 444.56 846.76 444.56C845.78 444.56 845.02 445.04 844.46 445.94C844.12 446.5 843.88 447.2 843.7 448.04C843.52 448.88 843.44 449.88 843.44 451C843.44 455.14 844.6 457.44 846.74 457.44Z" fill="black"/>
<rect width="976" height="250" transform="translate(24 482)" fill="black"/>
<path d="M377.473 637.916V630.14V612.536V576.788H368.833C359.221 576.788 353.389 584.888 350.149 599.468H349.501C349.069 586.832 350.905 575.06 353.713 570.74C356.737 572.36 360.517 572.9 367.969 572.9H397.669C407.82 572.9 412.789 572.252 416.353 570.74C415.597 582.404 412.897 593.528 409.441 599.684H408.793C411.061 584.348 406.957 576.788 395.941 576.788H385.897V584.564V592.34V609.944V639.212C385.897 642.668 387.625 643.748 390.325 643.748C394.105 643.64 396.589 641.696 400.261 636.836L400.693 636.944L396.913 648.5L363.433 648.608V648.068C367.753 647.312 377.473 645.908 377.473 638.024V637.916ZM425.706 634.46V627.548V611.996V611.564C425.706 606.704 424.086 604.22 420.954 604.22C419.118 604.22 416.742 605.084 413.934 606.596L413.61 606.164C419.442 602.06 427.11 597.308 433.266 592.88H433.806C433.59 598.28 433.482 604.652 433.482 608.648C435.534 598.712 441.366 592.664 447.738 592.664C453.57 592.664 454.434 595.904 460.05 594.5C460.05 603.356 455.73 610.592 451.734 613.076L451.41 612.86C453.57 607.892 452.922 598.28 446.01 598.28C440.718 598.28 434.346 604.22 433.482 618.044V639.212C433.482 643.1 435.426 644.612 438.234 644.612C441.15 644.612 444.174 642.02 447.414 637.16L447.846 637.268L444.066 648.5H414.798V648.068C419.334 647.312 425.706 645.476 425.706 634.784V634.46ZM477.472 586.94C474.016 585.32 471.208 581 471.208 577.112C471.208 571.604 473.908 569.768 478.228 569.768C480.064 569.768 482.764 570.74 484.816 572.036C480.064 574.952 477.472 580.352 477.472 586.94ZM463.216 648.5V648.068C467.752 647.312 474.124 645.476 474.124 634.784V627.872V612.104V611.564C474.124 606.704 472.504 604.22 469.372 604.22C467.536 604.22 465.16 605.084 462.352 606.596L462.028 606.164C467.86 602.06 475.528 597.308 481.684 592.88H482.224C481.9 599.9 481.792 608.108 481.9 611.564V639.212C481.9 642.992 483.844 644.612 486.436 644.612C488.812 644.612 492.16 642.02 494.968 637.7L495.4 637.808L491.62 648.5H463.216ZM510.192 633.488V625.712V608.108V598.388H498.528V597.956C504.9 596.984 510.192 594.608 510.192 584.78C510.192 579.596 511.488 575.168 513.648 571.604C517.968 564.476 526.068 560.696 535.032 560.696C541.944 560.696 548.856 562.316 554.148 565.34C558.468 562.316 564.624 560.912 571.644 560.912C583.524 560.912 587.304 567.176 594.54 565.664C594.432 574.52 591.516 580.892 585.036 586.4L584.604 586.184C586.116 575.6 585.036 564.044 570.672 564.044C563.004 564.044 554.904 569.228 554.904 579.812V594.716H578.448C582.876 594.824 588.384 594.176 592.488 591.476C592.164 595.04 591.84 599.9 591.84 603.14V639.212C591.84 642.992 593.784 644.612 596.376 644.612C598.752 644.612 602.1 642.02 604.908 637.7L605.34 637.808L601.56 648.5H573.156V648.068C577.692 647.312 584.064 645.476 584.064 634.784V633.488V625.712L583.956 608.108C583.956 601.196 582.876 598.388 576.504 598.388H554.904V639.212C554.904 642.992 556.848 644.612 559.44 644.612C561.816 644.612 565.164 642.02 567.972 637.7L568.404 637.808L564.624 648.5H536.22V648.068C540.756 647.312 547.128 645.476 547.128 634.784V633.488V625.712V608.108V598.388H518.076L517.968 639.212C517.968 642.992 519.912 644.612 522.504 644.612C524.88 644.612 528.228 642.02 531.036 637.7L531.468 637.808L527.688 648.5H499.284V648.068C503.82 647.312 510.192 645.476 510.192 634.784V633.488ZM518.076 594.716H547.128V583.376C547.128 571.604 545.508 563.828 533.736 563.828C525.96 563.828 517.86 569.012 517.968 579.596L518.076 594.716ZM653.894 648.608C654.434 643.532 654.218 642.128 654.218 637.16C651.086 645.584 644.066 650.552 634.994 650.552C622.79 650.552 617.498 642.236 611.558 641.156C613.934 638.564 613.718 634.676 613.718 628.844C613.718 605.3 623.33 592.124 638.126 592.124C644.714 592.124 649.682 594.392 654.11 597.956V579.164C654.11 574.304 652.49 571.82 649.358 571.82C647.522 571.82 645.146 572.684 642.338 574.196L642.014 573.764C647.846 569.66 655.514 564.908 661.67 560.48H662.21C661.886 567.5 661.778 575.708 661.886 579.164V602.816V608.432V625.604V638.888C661.886 642.776 663.182 644.504 665.342 644.504C667.502 644.504 670.418 642.776 673.55 639.428L673.982 639.968C669.23 648.284 663.074 652.604 654.65 648.932L653.894 648.608ZM622.682 629.06C623.006 631.22 623.546 633.38 624.302 635.324C626.894 642.128 631.43 646.988 638.018 646.988C646.874 646.988 653.246 638.78 654.218 626.684V611.456C652.706 597.092 643.094 594.716 638.234 594.716C631.97 594.716 627.866 598.388 625.382 603.68C622.79 609.08 621.926 616.1 622.034 622.364C622.034 624.632 622.25 626.9 622.682 629.06Z" fill="#F5DFCE"/>
</svg>
